<svg width="64" height="35" viewBox="0 0 64 35" fill="none" xmlns="http://www.w3.org/2000/svg">
<path d="M19.565 34.75C18.515 34.75 17.4767 34.4467 16.45 33.84C15.4467 33.2567 14.1633 32.3467 12.6 31.11C11.4333 30.1767 10.43 29.4183 9.59 28.835C8.77333 28.275 7.875 27.7967 6.895 27.4C5.93833 27.0033 4.95833 26.805 3.955 26.805C3.605 26.805 3.33667 26.8167 3.15 26.84L8.365 2.585C6.80167 3.215 5.58833 4.18333 4.725 5.49C3.885 6.77333 3.465 8.34833 3.465 10.215C3.465 11.0783 3.54667 11.685 3.71 12.035C3.87333 12.3617 3.955 12.5483 3.955 12.595C2.695 12.595 1.75 12.3383 1.12 11.825C0.513333 11.2883 0.21 10.4133 0.21 9.2C0.21 7.70667 0.816667 6.26 2.03 4.86C3.26667 3.43667 4.84167 2.29333 6.755 1.43C8.66833 0.543333 10.5817 0.0999997 12.495 0.0999997C12.8217 0.0999997 13.2883 0.123333 13.895 0.169999L8.505 25.3C9.15833 25.4633 9.82333 25.6967 10.5 26C11.2 26.3267 12.04 26.7583 13.02 27.295C14.5367 28.1117 15.8317 28.73 16.905 29.15C17.9783 29.5933 19.0983 29.815 20.265 29.815C21.315 29.815 22.295 29.6283 23.205 29.255C23.0183 30.9583 22.5983 32.3 21.945 33.28C21.315 34.26 20.5217 34.75 19.565 34.75ZM18.3717 26.14C16.6451 26.14 15.2801 25.6967 14.2767 24.81C13.2734 23.9233 12.7717 22.5233 12.7717 20.61C12.7717 19.0233 13.0984 17.2617 13.7517 15.325C14.4051 13.3883 15.4551 11.72 16.9017 10.32C18.3484 8.89667 20.1684 8.185 22.3617 8.185C25.3484 8.185 26.8417 10.0517 26.8417 13.785V13.82C26.9117 13.8433 27.0401 13.855 27.2267 13.855C27.9967 13.855 28.8834 13.6567 29.8867 13.26C30.8901 12.84 31.8001 12.3383 32.6167 11.755L32.9317 12.7C32.2551 13.4233 31.3684 14.0417 30.2717 14.555C29.1984 15.045 28.0201 15.395 26.7367 15.605C26.5501 17.7283 26.0717 19.5833 25.3017 21.17C24.5317 22.7567 23.5401 23.9817 22.3267 24.845C21.1134 25.7083 19.7951 26.14 18.3717 26.14ZM19.7717 22.99C20.3317 22.99 20.8917 22.675 21.4517 22.045C22.0117 21.3917 22.5017 20.5167 22.9217 19.42C23.3417 18.3 23.6451 17.0633 23.8317 15.71C23.2017 15.57 22.8867 15.08 22.8867 14.24C22.8867 13.2833 23.2484 12.6533 23.9717 12.35C23.9251 11.58 23.8084 11.055 23.6217 10.775C23.4351 10.4717 23.1084 10.32 22.6417 10.32C21.8717 10.32 21.1251 10.88 20.4017 12C19.6784 13.12 19.0951 14.4617 18.6517 16.025C18.2084 17.5883 17.9867 18.965 17.9867 20.155C17.9867 21.275 18.1151 22.0333 18.3717 22.43C18.6284 22.8033 19.0951 22.99 19.7717 22.99ZM34.8376 34.75C33.7176 34.75 32.7842 34.4583 32.0376 33.875C31.2909 33.2917 30.9176 32.4517 30.9176 31.355C30.9176 30.025 31.4542 28.9517 32.5276 28.135C33.6009 27.3417 34.9659 26.6767 36.6226 26.14L37.0426 24.285C35.8526 25.5683 34.4526 26.21 32.8426 26.21C31.5126 26.21 30.4042 25.755 29.5176 24.845C28.6309 23.935 28.1876 22.5117 28.1876 20.575C28.1876 18.8483 28.5259 17.04 29.2026 15.15C29.9026 13.2367 30.9292 11.6267 32.2826 10.32C33.6592 8.99 35.2926 8.325 37.1826 8.325C38.1392 8.325 38.8509 8.48833 39.3176 8.815C39.7842 9.14167 40.0176 9.57333 40.0176 10.11V10.32L40.4026 8.5H45.4426L41.9776 24.74C43.0976 24.3667 43.9959 23.8067 44.6726 23.06C45.3492 22.3133 45.9209 21.205 46.3876 19.735H47.8576C47.2276 21.8117 46.3759 23.34 45.3026 24.32C44.2292 25.2767 43.0159 25.93 41.6626 26.28L41.1376 28.8C40.6709 31.0633 39.8659 32.615 38.7226 33.455C37.5792 34.3183 36.2842 34.75 34.8376 34.75ZM35.1176 22.815C35.6542 22.815 36.2026 22.57 36.7626 22.08C37.3226 21.59 37.7076 20.925 37.9176 20.085L39.7026 11.79C39.7026 11.51 39.5859 11.23 39.3526 10.95C39.1192 10.6467 38.7576 10.495 38.2676 10.495C37.3342 10.495 36.4942 11.0433 35.7476 12.14C35.0009 13.2133 34.4176 14.52 33.9976 16.06C33.5776 17.5767 33.3676 18.9183 33.3676 20.085C33.3676 21.2517 33.5309 21.9983 33.8576 22.325C34.2076 22.6517 34.6276 22.815 35.1176 22.815ZM34.0326 32.02C34.4292 32.02 34.8142 31.7517 35.1876 31.215C35.5609 30.6783 35.8526 29.9083 36.0626 28.905L36.2726 27.89C33.9859 28.73 32.8426 29.7217 32.8426 30.865C32.8426 31.1683 32.9476 31.4367 33.1576 31.67C33.3676 31.9033 33.6592 32.02 34.0326 32.02ZM51.4918 26.14C49.7652 26.14 48.4002 25.6967 47.3968 24.81C46.3935 23.9233 45.8918 22.5233 45.8918 20.61C45.8918 19 46.2068 17.2383 46.8368 15.325C47.4668 13.3883 48.4935 11.72 49.9168 10.32C51.3402 8.89667 53.1602 8.185 55.3768 8.185C58.1302 8.185 59.6118 9.76 59.8218 12.91C60.3352 12.7933 60.7902 12.5133 61.1868 12.07C61.5835 11.6033 61.9568 11.0783 62.3068 10.495H63.4268C62.7968 11.755 62.2368 12.7467 61.7468 13.47C61.2568 14.17 60.6152 14.7417 59.8218 15.185C59.6818 17.3783 59.2268 19.3033 58.4568 20.96C57.7102 22.6167 56.7302 23.9 55.5168 24.81C54.3035 25.6967 52.9618 26.14 51.4918 26.14ZM52.8918 22.99C53.7552 22.99 54.5602 22.29 55.3068 20.89C56.0535 19.49 56.5668 17.7633 56.8468 15.71C56.2868 15.5 56.0068 14.975 56.0068 14.135C56.0068 13.225 56.3335 12.6183 56.9868 12.315C56.9402 11.5683 56.8118 11.055 56.6018 10.775C56.4152 10.4717 56.1002 10.32 55.6568 10.32C54.8868 10.32 54.1518 10.88 53.4518 12C52.7518 13.0967 52.1802 14.4383 51.7368 16.025C51.3168 17.5883 51.1068 18.965 51.1068 20.155C51.1068 21.275 51.2352 22.0333 51.4918 22.43C51.7485 22.8033 52.2152 22.99 52.8918 22.99Z" fill="#2C264B"/>
</svg>
